#tb 0: 1/11025
0,          0,          0,      264,      528, 0xa2579e96
0,        264,        264,      264,      528, 0xe5f71fd0
0,        528,        528,      264,      528, 0xb8629294
0,        792,        792,      264,      528, 0x9d1484ca
0,       1056,       1056,      264,      528, 0x3844ad6a
0,       1320,       1320,      264,      528, 0xea29af82
0,       1584,       1584,      264,      528, 0xc6db75df
0,       1848,       1848,      264,      528, 0x2b8a3adc
0,       2112,       2112,      264,      528, 0x787d3da6
0,       2376,       2376,      264,      528, 0x5b1c41e8
0,       2640,       2640,      264,      528, 0x825c524d
0,       2904,       2904,      264,      528, 0x575c0d06
0,       3168,       3168,      264,      528, 0x8a832580
0,       3432,       3432,      264,      528, 0x76534308
0,       3696,       3696,      264,      528, 0x0b8f13f7
0,       3960,       3960,      264,      528, 0x3735192a
0,       4224,       4224,      264,      528, 0x86b40609
0,       4488,       4488,      264,      528, 0x74a20afc
0,       4752,       4752,      264,      528, 0x78cb4a29
0,       5016,       5016,      264,      528, 0x0fd148a2
0,       5280,       5280,      264,      528, 0x13b71e44
0,       5544,       5544,      264,      528, 0x8f1b40c4
0,       5808,       5808,      264,      528, 0x788344e7
0,       6072,       6072,      264,      528, 0x6d41508c
0,       6336,       6336,      264,      528, 0xfe31537c
0,       6600,       6600,      264,      528, 0xc5d826bd
0,       6864,       6864,      264,      528, 0x339336e7
0,       7128,       7128,      264,      528, 0x95d2021c
0,       7392,       7392,      264,      528, 0x951730cd
0,       7656,       7656,      264,      528, 0x0e6d2f6a
0,       7920,       7920,      264,      528, 0x333c30c0
0,       8184,       8184,      264,      528, 0x4e810b84
0,       8448,       8448,      264,      528, 0xc53624c2
0,       8712,       8712,      264,      528, 0xc0c723e9
0,       8976,       8976,      264,      528, 0x27b22718
0,       9240,       9240,      264,      528, 0x261c0ea6
0,       9504,       9504,      264,      528, 0x5b4510cb
0,       9768,       9768,      264,      528, 0xec7e0955
0,      10032,      10032,      264,      528, 0xefb35690
0,      10296,      10296,      264,      528, 0x5f1f70f5
0,      10560,      10560,      264,      528, 0xce1d874a
0,      10824,      10824,      264,      528, 0x63a691a8
0,      11088,      11088,      264,      528, 0xaff85b37
0,      11352,      11352,      264,      528, 0x5da414d4
0,      11616,      11616,      264,      528, 0x3b82206b
0,      11880,      11880,      264,      528, 0x86bb6411
0,      12144,      12144,      264,      528, 0xffaa7abc
0,      12408,      12408,      264,      528, 0x30d152fa
0,      12672,      12672,      264,      528, 0xdf194c06
0,      12936,      12936,      264,      528, 0xadd64e0e
0,      13200,      13200,      264,      528, 0xb04f4e45
0,      13464,      13464,      264,      528, 0x4e98289d
0,      13728,      13728,      264,      528, 0x26cf3c5b
0,      13992,      13992,      264,      528, 0x1cbe4836
0,      14256,      14256,      264,      528, 0x42f11cae
0,      14520,      14520,      264,      528, 0x525f2c18
0,      14784,      14784,      264,      528, 0xc2a4291a
0,      15048,      15048,      264,      528, 0xfd9e10de
0,      15312,      15312,      264,      528, 0x4c6046de
0,      15576,      15576,      264,      528, 0x13b01aee
0,      15840,      15840,      264,      528, 0xbf6727c5
0,      16104,      16104,      264,      528, 0x9fc53c1f
0,      16368,      16368,      264,      528, 0x361f39bf
0,      16632,      16632,      264,      528, 0xdb504f43
0,      16896,      16896,      264,      528, 0x1e985233
0,      17160,      17160,      264,      528, 0xee8247a9
0,      17424,      17424,      264,      528, 0xee89996f
0,      17688,      17688,      264,      528, 0xc9c63e19
0,      17952,      17952,      264,      528, 0x5f28099b
0,      18216,      18216,      264,      528, 0xfb5b193d
0,      18480,      18480,      264,      528, 0xbaa3265d
0,      18744,      18744,      264,      528, 0x06da2603
0,      19008,      19008,      264,      528, 0x3bcf29a2
0,      19272,      19272,      264,      528, 0xe56b1017
0,      19536,      19536,      264,      528, 0x6ea8034c
0,      19800,      19800,      264,      528, 0x65892cfd
0,      20064,      20064,      264,      528, 0x77ef2509
0,      20328,      20328,      264,      528, 0x11501d60
0,      20592,      20592,      264,      528, 0x81ea1ccf
0,      20856,      20856,      264,      528, 0xe3a01314
0,      21120,      21120,      264,      528, 0x31872670
0,      21384,      21384,      264,      528, 0x136b0994
0,      21648,      21648,      264,      528, 0xde870a5d
0,      21912,      21912,      264,      528, 0xf6370f33
0,      22176,      22176,      264,      528, 0x341312cb
0,      22440,      22440,      264,      528, 0x776c12bc
0,      22704,      22704,      264,      528, 0x8d541104
0,      22968,      22968,      264,      528, 0x1dfc09dc
0,      23232,      23232,      264,      528, 0x53000a4d
0,      23496,      23496,      264,      528, 0xd46f31d7
0,      23760,      23760,      264,      528, 0x4f602304
0,      24024,      24024,      264,      528, 0xf05d354e
0,      24288,      24288,      264,      528, 0xbae91648
0,      24552,      24552,      264,      528, 0xaef218d0
0,      24816,      24816,      264,      528, 0x9ce7018a
0,      25080,      25080,      264,      528, 0xbab807f3
0,      25344,      25344,      264,      528, 0xa0da0b76
0,      25608,      25608,      264,      528, 0xde19046b
0,      25872,      25872,      264,      528, 0x802027f2
0,      26136,      26136,      264,      528, 0xcbf4440c
0,      26400,      26400,      264,      528, 0xc1ae0f5d
0,      26664,      26664,      264,      528, 0xf003f824
0,      26928,      26928,      264,      528, 0x6cf4233c
0,      27192,      27192,      264,      528, 0x0a6f23fc
0,      27456,      27456,      264,      528, 0x407b0a6e
0,      27720,      27720,      264,      528, 0x38511fc6
0,      27984,      27984,      264,      528, 0x750911a8
0,      28248,      28248,      264,      528, 0x8d3c094c
0,      28512,      28512,      264,      528, 0x7ef8da45
0,      28776,      28776,      264,      528, 0x9a095520
0,      29040,      29040,      264,      528, 0x79f746ca
0,      29304,      29304,      264,      528, 0xbce10066
0,      29568,      29568,      264,      528, 0x621a0042
0,      29832,      29832,      264,      528, 0x67a4f64e
0,      30096,      30096,      264,      528, 0x13370891
0,      30360,      30360,      264,      528, 0x829e1723
0,      30624,      30624,      264,      528, 0x1af217bf
0,      30888,      30888,      264,      528, 0x8067147c
0,      31152,      31152,      264,      528, 0x26bf1e9c
0,      31416,      31416,      264,      528, 0xa6a004a8
0,      31680,      31680,      264,      528, 0x7d1a0ffb
0,      31944,      31944,      264,      528, 0xed0607a3
0,      32208,      32208,      264,      528, 0xf842f789
0,      32472,      32472,      264,      528, 0x8a141fbd
0,      32736,      32736,      264,      528, 0x97491eab
0,      33000,      33000,      264,      528, 0xdef20918
0,      33264,      33264,      264,      528, 0x1fd836ac
0,      33528,      33528,      264,      528, 0x05fc2049
0,      33792,      33792,      264,      528, 0x431f1bf3
0,      34056,      34056,      264,      528, 0x93c9f995
0,      34320,      34320,      264,      528, 0x215f04ad
0,      34584,      34584,      264,      528, 0x36190557
0,      34848,      34848,      264,      528, 0x5824078a
0,      35112,      35112,      264,      528, 0x2b8b03a1
0,      35376,      35376,      264,      528, 0x2f8315a1
0,      35640,      35640,      264,      528, 0x0e702a0f
0,      35904,      35904,      264,      528, 0x7ce109b0
0,      36168,      36168,      264,      528, 0x2a1a2dbc
0,      36432,      36432,      264,      528, 0x659f2171
0,      36696,      36696,      264,      528, 0xeb362074
0,      36960,      36960,      264,      528, 0x46141b69
0,      37224,      37224,      264,      528, 0xe2b205e6
0,      37488,      37488,      264,      528, 0xe20509f6
0,      37752,      37752,      264,      528, 0xfa5303da
0,      38016,      38016,      264,      528, 0xc2d7f5a9
0,      38280,      38280,      264,      528, 0xbd7212b8
0,      38544,      38544,      264,      528, 0xd0ed1bd0
0,      38808,      38808,      264,      528, 0x912c277d
0,      39072,      39072,      264,      528, 0x10c220ce
0,      39336,      39336,      264,      528, 0xf7062e83
0,      39600,      39600,      264,      528, 0x53622bd5
0,      39864,      39864,      264,      528, 0xe3bbf392
0,      40128,      40128,      264,      528, 0xbe6c3d5d
0,      40392,      40392,      264,      528, 0xcba72448
0,      40656,      40656,      264,      528, 0x92cc2326
0,      40920,      40920,      264,      528, 0x77212639
0,      41184,      41184,      264,      528, 0x2653fe97
0,      41448,      41448,      264,      528, 0x35e1387e
0,      41712,      41712,      264,      528, 0x30521183
0,      41976,      41976,      264,      528, 0x92c618fe
0,      42240,      42240,      264,      528, 0x9ee231c0
0,      42504,      42504,      264,      528, 0xae47153c
0,      42768,      42768,      264,      528, 0x7359ffc4
0,      43032,      43032,      264,      528, 0xe717206e
0,      43296,      43296,      264,      528, 0xd6bd1618
0,      43560,      43560,      264,      528, 0xfa904100
0,      43824,      43824,      264,      528, 0x4c8f3b77
0,      44088,      44088,      264,      528, 0x500b0734
0,      44352,      44352,      264,      528, 0xe63f4fcf
0,      44616,      44616,      264,      528, 0xfd791f43
0,      44880,      44880,      264,      528, 0xd6fc0800
0,      45144,      45144,      264,      528, 0xeead12d0
0,      45408,      45408,      264,      528, 0x32104535
0,      45672,      45672,      264,      528, 0xd768176e
0,      45936,      45936,      264,      528, 0x0bc3ffb3
0,      46200,      46200,      264,      528, 0x462006f9
0,      46464,      46464,      264,      528, 0x6c790806
0,      46728,      46728,      264,      528, 0x985c05f3
0,      46992,      46992,      264,      528, 0x3eab2e45
0,      47256,      47256,      264,      528, 0xd1c61ce4
0,      47520,      47520,      264,      528, 0xc9ff032b
0,      47784,      47784,      264,      528, 0x58260335
0,      48048,      48048,      264,      528, 0x8685260a
0,      48312,      48312,      264,      528, 0x365527c3
0,      48576,      48576,      264,      528, 0x854c127f
0,      48840,      48840,      264,      528, 0xb8342671
0,      49104,      49104,      264,      528, 0xd1931944
0,      49368,      49368,      264,      528, 0x19841238
0,      49632,      49632,      264,      528, 0xb8690b6e
0,      49896,      49896,      264,      528, 0xdd2d08f5
0,      50160,      50160,      264,      528, 0xfbd50c16
0,      50424,      50424,      264,      528, 0x535cfa83
0,      50688,      50688,      264,      528, 0x6f250cc4
0,      50952,      50952,      264,      528, 0xb5b313bc
0,      51216,      51216,      264,      528, 0xadb62e42
0,      51480,      51480,      264,      528, 0x344a1663
0,      51744,      51744,      264,      528, 0x8cb31ca9
0,      52008,      52008,      264,      528, 0xce1a30dd
0,      52272,      52272,      264,      528, 0xf03d30af
0,      52536,      52536,      264,      528, 0xebcb6c29
0,      52800,      52800,      264,      528, 0x0da8058e
0,      53064,      53064,      264,      528, 0x87862e1f
0,      53328,      53328,      264,      528, 0x271e05bf
0,      53592,      53592,      264,      528, 0xaede2071
0,      53856,      53856,      264,      528, 0x080c0e84
0,      54120,      54120,      264,      528, 0x4d4223e0
0,      54384,      54384,      264,      528, 0xc0e8080c
0,      54648,      54648,      264,      528, 0xa39903ef
0,      54912,      54912,      264,      528, 0x0ebbfd8c
0,      55176,      55176,      264,      528, 0x354f13d7
0,      55440,      55440,      264,      528, 0x5c862c67
0,      55704,      55704,      264,      528, 0x906e4f18
0,      55968,      55968,      264,      528, 0xcc746186
0,      56232,      56232,      264,      528, 0xfe1242b4
0,      56496,      56496,      264,      528, 0x0097023c
0,      56760,      56760,      264,      528, 0x92c11ddb
0,      57024,      57024,      264,      528, 0xa07bff7b
0,      57288,      57288,      264,      528, 0xa8860805
0,      57552,      57552,      264,      528, 0xe2be1d22
0,      57816,      57816,      264,      528, 0xf244ff66
0,      58080,      58080,      264,      528, 0x3a6c142e
0,      58344,      58344,      264,      528, 0xd4a1f8e3
0,      58608,      58608,      264,      528, 0x8f1f0ea1
0,      58872,      58872,      264,      528, 0xb7de5cd4
0,      59136,      59136,      264,      528, 0x1a3d325a
0,      59400,      59400,      264,      528, 0xd1030535
0,      59664,      59664,      264,      528, 0x42e233bd
0,      59928,      59928,      264,      528, 0x69df3188
0,      60192,      60192,      264,      528, 0xc5534815
0,      60456,      60456,      264,      528, 0xcd7a7509
0,      60720,      60720,      264,      528, 0xa442556a
0,      60984,      60984,      264,      528, 0x5b895b84
0,      61248,      61248,      264,      528, 0xdd767080
0,      61512,      61512,      264,      528, 0x125491b0
0,      61776,      61776,      264,      528, 0xae6d6e6c
0,      62040,      62040,      264,      528, 0x701c30ea
0,      62304,      62304,      264,      528, 0x54084bbc
0,      62568,      62568,      264,      528, 0xac2678f6
0,      62832,      62832,      264,      528, 0x8f4882dd
0,      63096,      63096,      264,      528, 0x43537015
0,      63360,      63360,      264,      528, 0x776c3b6b
0,      63624,      63624,      264,      528, 0xb6c85d8a
0,      63888,      63888,      264,      528, 0xf44d44cd
0,      64152,      64152,      264,      528, 0xc2e64e73
0,      64416,      64416,      264,      528, 0x959b8c7c
0,      64680,      64680,      264,      528, 0x7852677a
0,      64944,      64944,      264,      528, 0x8392f26b
0,      65208,      65208,      264,      528, 0x4a7b3403
0,      65472,      65472,      264,      528, 0x5b4340b4
0,      65736,      65736,      264,      528, 0x89b274d3
0,      66000,      66000,      264,      528, 0xca7e84b8
0,      66264,      66264,      264,      528, 0xbdbd6dbc
0,      66528,      66528,      264,      528, 0x713d59de
0,      66792,      66792,      264,      528, 0x973c6fb8
0,      67056,      67056,      264,      528, 0x7e5d736f
0,      67320,      67320,      264,      528, 0x84bf8602
0,      67584,      67584,      264,      528, 0x61bc50de
0,      67848,      67848,      264,      528, 0xe9b8637c
0,      68112,      68112,      264,      528, 0x1ecf5dd2
0,      68376,      68376,      264,      528, 0x897e94d2
0,      68640,      68640,      264,      528, 0x6af8273a
0,      68904,      68904,      264,      528, 0x30214d72
0,      69168,      69168,      264,      528, 0xe6505a6a
0,      69432,      69432,      264,      528, 0xa5383289
0,      69696,      69696,      264,      528, 0xd7fd1b78
0,      69960,      69960,      264,      528, 0x9f50096d
0,      70224,      70224,      264,      528, 0x3b0b23be
0,      70488,      70488,      264,      528, 0x7c5c220c
0,      70752,      70752,      264,      528, 0xd4da479d
0,      71016,      71016,      264,      528, 0xf47a308c
0,      71280,      71280,      264,      528, 0x8ea13585
0,      71544,      71544,      264,      528, 0x730a3d06
0,      71808,      71808,      264,      528, 0xdd2d6173
0,      72072,      72072,      264,      528, 0xa4603bd4
0,      72336,      72336,      264,      528, 0x49ea274c
0,      72600,      72600,      264,      528, 0x18d14ca4
0,      72864,      72864,      264,      528, 0xaf6886ee
0,      73128,      73128,      264,      528, 0x902d45c2
0,      73392,      73392,      264,      528, 0x769176d1
0,      73656,      73656,      264,      528, 0x69b03076
0,      73920,      73920,      264,      528, 0x7a0925bd
0,      74184,      74184,      264,      528, 0xd91a8f50
0,      74448,      74448,      264,      528, 0x928d78bb
0,      74712,      74712,      264,      528, 0xa31a7dea
0,      74976,      74976,      264,      528, 0x5a466eb9
0,      75240,      75240,      264,      528, 0x4cdb3c48
0,      75504,      75504,      264,      528, 0xeb592ef1
0,      75768,      75768,      264,      528, 0x6b532c76
0,      76032,      76032,      264,      528, 0x7aa0723e
0,      76296,      76296,      264,      528, 0xdbc14fdf
0,      76560,      76560,      264,      528, 0xe8195d57
0,      76824,      76824,      264,      528, 0x669f210a
0,      77088,      77088,      264,      528, 0x8e264936
0,      77352,      77352,      264,      528, 0xfe55298f
0,      77616,      77616,      264,      528, 0x2d1f4564
0,      77880,      77880,      264,      528, 0x09726667
0,      78144,      78144,      264,      528, 0xb1da566c
0,      78408,      78408,      264,      528, 0xa350673e
0,      78672,      78672,      264,      528, 0xa60d4f23
0,      78936,      78936,      264,      528, 0xe5f64dc8
0,      79200,      79200,      264,      528, 0x26a56591
0,      79464,      79464,      264,      528, 0x18e851cd
0,      79728,      79728,      264,      528, 0xedfc6a5e
0,      79992,      79992,      264,      528, 0xfbcf3a7a
0,      80256,      80256,      264,      528, 0x9d9d7cbf
0,      80520,      80520,      264,      528, 0x840342bc
0,      80784,      80784,      264,      528, 0x566f2b55
0,      81048,      81048,      264,      528, 0x48522fdd
0,      81312,      81312,      264,      528, 0xa79c3706
0,      81576,      81576,      264,      528, 0xeae44afe
0,      81840,      81840,      264,      528, 0x92ae3413
0,      82104,      82104,      264,      528, 0x2197743a
0,      82368,      82368,      264,      528, 0xa5626fef
0,      82632,      82632,      264,      528, 0xd55e75f5
0,      82896,      82896,      264,      528, 0x5cc7589d
0,      83160,      83160,      264,      528, 0xe7be6de6
0,      83424,      83424,      264,      528, 0xf7b46bde
0,      83688,      83688,      264,      528, 0x6d4c493f
0,      83952,      83952,      264,      528, 0x3c533ee6
0,      84216,      84216,      264,      528, 0x93c165fe
0,      84480,      84480,      264,      528, 0xc9018cf5
0,      84744,      84744,      264,      528, 0x750d6fd6
0,      85008,      85008,      264,      528, 0x16627df6
0,      85272,      85272,      264,      528, 0x73e8661b
0,      85536,      85536,      264,      528, 0xe87a5bed
0,      85800,      85800,      264,      528, 0xd83d0b56
0,      86064,      86064,      264,      528, 0xa6660b2d
0,      86328,      86328,      264,      528, 0x6e3f039f
0,      86592,      86592,      264,      528, 0x4bb00014
0,      86856,      86856,      264,      528, 0x2fb4fe08
0,      87120,      87120,      264,      528, 0x76c7faa7
0,      87384,      87384,      264,      528, 0x67bf01c1
0,      87648,      87648,      264,      528, 0x857f0343
